<svg width="24" height="24" viewBox="0 0 24 24" fill="none" xmlns="http://www.w3.org/2000/svg">
<path fill-rule="evenodd" clip-rule="evenodd" d="M7.94186 9.60993C7.88377 8.19914 8.67879 5.37756 12.3236 5.37756C15.9684 5.37756 17.029 7.66802 17.1037 8.81325C17.2696 9.46885 17.2082 11.0838 15.6348 12.2987C14.1509 13.4446 13.938 14.0456 13.8559 14.2774C13.851 14.2914 13.8465 14.304 13.8423 14.3153C13.7842 14.4232 13.668 14.7137 13.668 15.0124V15.9585C13.668 16.0498 13.5634 16.2323 13.1452 16.2323H11.5767C11.4854 16.1908 11.3078 16.0481 11.3277 15.8091C11.3477 15.5701 11.336 15.0456 11.3277 14.8132C11.3526 14.2904 11.6165 13.0406 12.473 12.224C13.3294 11.4074 14.0746 10.6888 14.3402 10.4315C14.8381 9.65972 15.2165 7.97673 12.7468 7.41906C11.2929 7.16014 10.5643 8.52279 10.3817 9.23648L10.307 9.83399C10.2572 9.95018 10.0481 10.1576 9.60991 10.0581C9.17173 9.95848 8.46468 9.86719 8.16592 9.83399C8.09216 9.8174 7.94407 9.74935 7.94186 9.60993ZM8.68875 9.1618C8.78833 7.69292 10.2821 6.07466 12.0248 6.04976C14.9898 6.00741 15.9335 7.56843 16.307 8.4647C16.3167 8.59117 16.3369 8.69863 16.3566 8.80342C16.4376 9.235 16.5102 9.62133 15.8091 11.1037C15.7234 11.2848 15.0858 11.8632 14.5193 12.3769C14.0732 12.7815 13.6714 13.1461 13.6182 13.2448C13.6038 13.2716 13.5626 13.3313 13.5078 13.4109C13.3422 13.6511 13.0519 14.0722 12.9958 14.3153L12.8962 15.1867C12.8962 15.2089 12.9106 15.2394 12.9264 15.2729C12.9757 15.3772 13.0386 15.5103 12.7219 15.5103H12.2738C12.2638 15.5058 12.2528 15.5013 12.2412 15.4964C12.1461 15.4571 12.0071 15.3996 12.0248 15.1867C12.0335 15.0828 12.0456 15.0332 12.0558 14.9912C12.0692 14.9366 12.0793 14.8949 12.0746 14.7635C12.0995 14.2406 12.3734 13.4688 12.8962 12.8962C13.2223 12.5391 13.5925 12.1744 13.9499 11.8223C14.4904 11.2899 15.0015 10.7863 15.2862 10.3817C15.7842 9.60993 15.5651 7.22985 13.0954 6.67217C11.6414 6.41325 10.307 7.39416 9.95845 8.24063L9.6348 9.26138C9.6348 9.26138 8.9875 9.19499 8.68875 9.1618Z" fill="white"/>
<path fill-rule="evenodd" clip-rule="evenodd" d="M12.498 16.8796C11.783 16.8796 11.2034 17.4593 11.2034 18.1742C11.2034 18.8892 11.783 19.4689 12.498 19.4689C13.213 19.4689 13.7926 18.8892 13.7926 18.1742C13.7926 17.4593 13.213 16.8796 12.498 16.8796ZM13.0955 17.6265H11.9005V18.722H13.0955V17.6265Z" fill="white"/>
<path fill-rule="evenodd" clip-rule="evenodd" d="M12 24C18.6274 24 24 18.6274 24 12C24 5.37258 18.6274 0 12 0C5.37258 0 0 5.37258 0 12C0 18.6274 5.37258 24 12 24ZM12 23.2033C18.3249 23.2033 23.4523 18.1874 23.4523 12C23.4523 5.81258 18.3249 0.796681 12 0.796681C5.67508 0.796681 0.547718 5.81258 0.547718 12C0.547718 18.1874 5.67508 23.2033 12 23.2033Z" fill="white"/>
</svg>
