<svg width="339" height="209" viewBox="0 0 339 209" fill="none" xmlns="http://www.w3.org/2000/svg">
<g filter="url(#filter0_d)">
<rect x="4" width="331" height="201" fill="#145AA5"/>
</g>
<g filter="url(#filter1_d)">
<rect x="31" y="29" width="281" height="133" rx="5" fill="#E3E1D2"/>
</g>
<rect x="31" y="29" width="281" height="54" rx="5" fill="#D80000"/>
<path d="M91.0938 45.9922H83.1133V68H78.7012V45.9922H70.791V42.4062H91.0938V45.9922ZM114.789 68H110.359V56.627H98.916V68H94.4688V42.4062H98.916V53.0586H110.359V42.4062H114.789V68ZM140.488 55.8711C140.488 58.3789 140.055 60.582 139.188 62.4805C138.32 64.3672 137.078 65.8203 135.461 66.8398C133.855 67.8477 132.004 68.3516 129.906 68.3516C127.832 68.3516 125.98 67.8477 124.352 66.8398C122.734 65.8203 121.48 64.373 120.59 62.498C119.711 60.623 119.266 58.4609 119.254 56.0117V54.5703C119.254 52.0742 119.693 49.8711 120.572 47.9609C121.463 46.0508 122.711 44.5918 124.316 43.584C125.934 42.5645 127.785 42.0547 129.871 42.0547C131.957 42.0547 133.803 42.5586 135.408 43.5664C137.025 44.5625 138.273 46.0039 139.152 47.8906C140.031 49.7656 140.477 51.9512 140.488 54.4473V55.8711ZM136.041 54.5352C136.041 51.6992 135.502 49.5254 134.424 48.0137C133.357 46.502 131.84 45.7461 129.871 45.7461C127.949 45.7461 126.443 46.502 125.354 48.0137C124.275 49.5137 123.725 51.6406 123.701 54.3945V55.8711C123.701 58.6836 124.246 60.8574 125.336 62.3926C126.438 63.9277 127.961 64.6953 129.906 64.6953C131.875 64.6953 133.387 63.9453 134.441 62.4453C135.508 60.9453 136.041 58.7539 136.041 55.8711V54.5352ZM135.971 40.4199V40.6133H132.543L129.906 37.8711L127.287 40.6133H123.895V40.3848L128.658 35.5332H131.172L135.971 40.4199ZM165.221 68H160.773L149.365 49.8418V68H144.918V42.4062H149.365L160.809 60.6348V42.4062H165.221V68ZM190.094 64.6777C189.168 65.8848 187.885 66.7988 186.244 67.4199C184.604 68.041 182.74 68.3516 180.654 68.3516C178.51 68.3516 176.611 67.8652 174.959 66.8926C173.307 65.9199 172.029 64.5312 171.127 62.7266C170.236 60.9102 169.773 58.7949 169.738 56.3809V54.377C169.738 50.5098 170.664 47.4922 172.516 45.3242C174.367 43.1445 176.951 42.0547 180.268 42.0547C183.115 42.0547 185.377 42.7578 187.053 44.1641C188.729 45.5703 189.736 47.5977 190.076 50.2461H185.717C185.225 47.1641 183.438 45.623 180.355 45.623C178.363 45.623 176.846 46.3438 175.803 47.7852C174.771 49.2148 174.238 51.3184 174.203 54.0957V56.0645C174.203 58.8301 174.783 60.9805 175.943 62.5156C177.115 64.0391 178.738 64.8008 180.812 64.8008C183.086 64.8008 184.703 64.2852 185.664 63.2539V58.2441H180.391V54.8691H190.094V64.6777ZM203.945 68V42.4062H212.717C215.611 42.4062 217.814 42.9863 219.326 44.1465C220.838 45.3066 221.594 47.0352 221.594 49.332C221.594 50.5039 221.277 51.5586 220.645 52.4961C220.012 53.4336 219.086 54.1602 217.867 54.6758C219.25 55.0508 220.316 55.7598 221.066 56.8027C221.828 57.834 222.209 59.0762 222.209 60.5293C222.209 62.9316 221.436 64.7773 219.889 66.0664C218.354 67.3555 216.15 68 213.279 68H203.945ZM208.393 56.4512V64.4492H213.332C214.727 64.4492 215.816 64.1035 216.602 63.4121C217.387 62.7207 217.779 61.7598 217.779 60.5293C217.779 57.8691 216.42 56.5098 213.701 56.4512H208.393ZM208.393 53.1816H212.752C214.135 53.1816 215.213 52.8711 215.986 52.25C216.771 51.6172 217.164 50.7266 217.164 49.5781C217.164 48.3125 216.801 47.3984 216.074 46.8359C215.359 46.2734 214.24 45.9922 212.717 45.9922H208.393V53.1816ZM240.982 62.041H231.068L228.994 68H224.371L234.039 42.4062H238.029L247.715 68H243.074L240.982 62.041ZM232.316 58.4551H239.734L236.025 47.8379L232.316 58.4551ZM237.361 35.5508H242.23L237.361 40.877H233.934L237.361 35.5508ZM270.672 55.8711C270.672 58.3789 270.238 60.582 269.371 62.4805C268.504 64.3672 267.262 65.8203 265.645 66.8398C264.039 67.8477 262.188 68.3516 260.09 68.3516C258.016 68.3516 256.164 67.8477 254.535 66.8398C252.918 65.8203 251.664 64.373 250.773 62.498C249.895 60.623 249.449 58.4609 249.438 56.0117V54.5703C249.438 52.0742 249.877 49.8711 250.756 47.9609C251.646 46.0508 252.895 44.5918 254.5 43.584C256.117 42.5645 257.969 42.0547 260.055 42.0547C262.141 42.0547 263.986 42.5586 265.592 43.5664C267.209 44.5625 268.457 46.0039 269.336 47.8906C270.215 49.7656 270.66 51.9512 270.672 54.4473V55.8711ZM266.225 54.5352C266.225 51.6992 265.686 49.5254 264.607 48.0137C263.541 46.502 262.023 45.7461 260.055 45.7461C258.133 45.7461 256.627 46.502 255.537 48.0137C254.459 49.5137 253.908 51.6406 253.885 54.3945V55.8711C253.885 58.6836 254.43 60.8574 255.52 62.3926C256.621 63.9277 258.145 64.6953 260.09 64.6953C262.059 64.6953 263.57 63.9453 264.625 62.4453C265.691 60.9453 266.225 58.7539 266.225 55.8711V54.5352Z" fill="white"/>
<path d="M97.8125 135V123.715H94.6484V120.498H97.8125V109.406H105.688C107.938 109.406 109.947 109.916 111.717 110.936C113.498 111.943 114.887 113.385 115.883 115.26C116.879 117.123 117.377 119.244 117.377 121.623V122.801C117.377 125.18 116.885 127.295 115.9 129.146C114.928 130.998 113.551 132.434 111.77 133.453C109.988 134.473 107.979 134.988 105.74 135H97.8125ZM106.936 123.715H103.086V130.764H105.635C107.721 130.764 109.309 130.078 110.398 128.707C111.488 127.324 112.033 125.355 112.033 122.801V121.605C112.033 119.004 111.494 117.035 110.416 115.699C109.338 114.352 107.762 113.678 105.688 113.678H103.086V120.498H106.936V123.715ZM126.834 135H121.561V109.406H126.834V135ZM147.137 123.908H137.012V130.764H148.895V135H131.738V109.406H148.859V113.678H137.012V119.777H147.137V123.908ZM147.014 108.07H143.375L140.58 105.715L137.768 108.07H134.129L139.051 104.027H142.109L147.014 108.07ZM145.379 105.838L145.15 103.834C145.877 103.799 146.398 103.711 146.715 103.57C147.043 103.418 147.207 103.189 147.207 102.885C147.207 102.182 146.498 101.83 145.08 101.83L145.186 99.8438C146.885 99.8438 148.162 100.102 149.018 100.617C149.873 101.121 150.301 101.824 150.301 102.727C150.301 103.289 150.102 103.77 149.703 104.168C149.316 104.555 148.777 104.789 148.086 104.871L148.068 105.838H145.379ZM158.879 109.406L165.453 127.969L171.992 109.406H178.918V135H173.627V128.004L174.154 115.928L167.246 135H163.625L156.734 115.945L157.262 128.004V135H151.988V109.406H158.879ZM210.699 113.678H202.859V135H197.586V113.678H189.852V109.406H210.699V113.678ZM234.553 135H229.279V124.031H218.996V135H213.723V109.406H218.996V119.777H229.279V109.406H234.553V135ZM244.783 135H239.51V109.406H244.783V135Z" fill="black"/>
<defs>
<filter id="filter0_d" x="0" y="0" width="339" height="209" filterUnits="userSpaceOnUse" color-interpolation-filters="sRGB">
<feFlood flood-opacity="0" result="BackgroundImageFix"/>
<feColorMatrix in="SourceAlpha" type="matrix" values="0 0 0 0 0 0 0 0 0 0 0 0 0 0 0 0 0 0 127 0"/>
<feOffset dy="4"/>
<feGaussianBlur stdDeviation="2"/>
<feColorMatrix type="matrix" values="0 0 0 0 0 0 0 0 0 0 0 0 0 0 0 0 0 0 0.25 0"/>
<feBlend mode="normal" in2="BackgroundImageFix" result="effect1_dropShadow"/>
<feBlend mode="normal" in="SourceGraphic" in2="effect1_dropShadow" result="shape"/>
</filter>
<filter id="filter1_d" x="27" y="29" width="289" height="141" filterUnits="userSpaceOnUse" color-interpolation-filters="sRGB">
<feFlood flood-opacity="0" result="BackgroundImageFix"/>
<feColorMatrix in="SourceAlpha" type="matrix" values="0 0 0 0 0 0 0 0 0 0 0 0 0 0 0 0 0 0 127 0"/>
<feOffset dy="4"/>
<feGaussianBlur stdDeviation="2"/>
<feColorMatrix type="matrix" values="0 0 0 0 0 0 0 0 0 0 0 0 0 0 0 0 0 0 0.25 0"/>
<feBlend mode="normal" in2="BackgroundImageFix" result="effect1_dropShadow"/>
<feBlend mode="normal" in="SourceGraphic" in2="effect1_dropShadow" result="shape"/>
</filter>
</defs>
</svg>
