<svg width="339" height="209" viewBox="0 0 339 209" fill="none" xmlns="http://www.w3.org/2000/svg">
<g filter="url(#filter0_d)">
<rect x="4" width="331" height="201" fill="#145AA5"/>
</g>
<g filter="url(#filter1_d)">
<rect x="31" y="29" width="281" height="133" rx="5" fill="#E3E1D2"/>
</g>
<rect x="31" y="29" width="281" height="54" rx="5" fill="#D80000"/>
<path d="M91.0938 45.9922H83.1133V68H78.7012V45.9922H70.791V42.4062H91.0938V45.9922ZM114.789 68H110.359V56.627H98.916V68H94.4688V42.4062H98.916V53.0586H110.359V42.4062H114.789V68ZM140.488 55.8711C140.488 58.3789 140.055 60.582 139.188 62.4805C138.32 64.3672 137.078 65.8203 135.461 66.8398C133.855 67.8477 132.004 68.3516 129.906 68.3516C127.832 68.3516 125.98 67.8477 124.352 66.8398C122.734 65.8203 121.48 64.373 120.59 62.498C119.711 60.623 119.266 58.4609 119.254 56.0117V54.5703C119.254 52.0742 119.693 49.8711 120.572 47.9609C121.463 46.0508 122.711 44.5918 124.316 43.584C125.934 42.5645 127.785 42.0547 129.871 42.0547C131.957 42.0547 133.803 42.5586 135.408 43.5664C137.025 44.5625 138.273 46.0039 139.152 47.8906C140.031 49.7656 140.477 51.9512 140.488 54.4473V55.8711ZM136.041 54.5352C136.041 51.6992 135.502 49.5254 134.424 48.0137C133.357 46.502 131.84 45.7461 129.871 45.7461C127.949 45.7461 126.443 46.502 125.354 48.0137C124.275 49.5137 123.725 51.6406 123.701 54.3945V55.8711C123.701 58.6836 124.246 60.8574 125.336 62.3926C126.438 63.9277 127.961 64.6953 129.906 64.6953C131.875 64.6953 133.387 63.9453 134.441 62.4453C135.508 60.9453 136.041 58.7539 136.041 55.8711V54.5352ZM135.971 40.4199V40.6133H132.543L129.906 37.8711L127.287 40.6133H123.895V40.3848L128.658 35.5332H131.172L135.971 40.4199ZM165.221 68H160.773L149.365 49.8418V68H144.918V42.4062H149.365L160.809 60.6348V42.4062H165.221V68ZM190.094 64.6777C189.168 65.8848 187.885 66.7988 186.244 67.4199C184.604 68.041 182.74 68.3516 180.654 68.3516C178.51 68.3516 176.611 67.8652 174.959 66.8926C173.307 65.9199 172.029 64.5312 171.127 62.7266C170.236 60.9102 169.773 58.7949 169.738 56.3809V54.377C169.738 50.5098 170.664 47.4922 172.516 45.3242C174.367 43.1445 176.951 42.0547 180.268 42.0547C183.115 42.0547 185.377 42.7578 187.053 44.1641C188.729 45.5703 189.736 47.5977 190.076 50.2461H185.717C185.225 47.1641 183.438 45.623 180.355 45.623C178.363 45.623 176.846 46.3438 175.803 47.7852C174.771 49.2148 174.238 51.3184 174.203 54.0957V56.0645C174.203 58.8301 174.783 60.9805 175.943 62.5156C177.115 64.0391 178.738 64.8008 180.812 64.8008C183.086 64.8008 184.703 64.2852 185.664 63.2539V58.2441H180.391V54.8691H190.094V64.6777ZM203.945 68V42.4062H212.717C215.611 42.4062 217.814 42.9863 219.326 44.1465C220.838 45.3066 221.594 47.0352 221.594 49.332C221.594 50.5039 221.277 51.5586 220.645 52.4961C220.012 53.4336 219.086 54.1602 217.867 54.6758C219.25 55.0508 220.316 55.7598 221.066 56.8027C221.828 57.834 222.209 59.0762 222.209 60.5293C222.209 62.9316 221.436 64.7773 219.889 66.0664C218.354 67.3555 216.15 68 213.279 68H203.945ZM208.393 56.4512V64.4492H213.332C214.727 64.4492 215.816 64.1035 216.602 63.4121C217.387 62.7207 217.779 61.7598 217.779 60.5293C217.779 57.8691 216.42 56.5098 213.701 56.4512H208.393ZM208.393 53.1816H212.752C214.135 53.1816 215.213 52.8711 215.986 52.25C216.771 51.6172 217.164 50.7266 217.164 49.5781C217.164 48.3125 216.801 47.3984 216.074 46.8359C215.359 46.2734 214.24 45.9922 212.717 45.9922H208.393V53.1816ZM240.982 62.041H231.068L228.994 68H224.371L234.039 42.4062H238.029L247.715 68H243.074L240.982 62.041ZM232.316 58.4551H239.734L236.025 47.8379L232.316 58.4551ZM237.361 35.5508H242.23L237.361 40.877H233.934L237.361 35.5508ZM270.672 55.8711C270.672 58.3789 270.238 60.582 269.371 62.4805C268.504 64.3672 267.262 65.8203 265.645 66.8398C264.039 67.8477 262.188 68.3516 260.09 68.3516C258.016 68.3516 256.164 67.8477 254.535 66.8398C252.918 65.8203 251.664 64.373 250.773 62.498C249.895 60.623 249.449 58.4609 249.438 56.0117V54.5703C249.438 52.0742 249.877 49.8711 250.756 47.9609C251.646 46.0508 252.895 44.5918 254.5 43.584C256.117 42.5645 257.969 42.0547 260.055 42.0547C262.141 42.0547 263.986 42.5586 265.592 43.5664C267.209 44.5625 268.457 46.0039 269.336 47.8906C270.215 49.7656 270.66 51.9512 270.672 54.4473V55.8711ZM266.225 54.5352C266.225 51.6992 265.686 49.5254 264.607 48.0137C263.541 46.502 262.023 45.7461 260.055 45.7461C258.133 45.7461 256.627 46.502 255.537 48.0137C254.459 49.5137 253.908 51.6406 253.885 54.3945V55.8711C253.885 58.6836 254.43 60.8574 255.52 62.3926C256.621 63.9277 258.145 64.6953 260.09 64.6953C262.059 64.6953 263.57 63.9453 264.625 62.4453C265.691 60.9453 266.225 58.7539 266.225 55.8711V54.5352Z" fill="white"/>
<path d="M106.559 130.764H117.756V135H101.285V109.406H106.559V130.764ZM126.404 135H121.131V109.406H126.404V135ZM120.902 139.078C120.902 138.375 121.166 137.795 121.693 137.338C122.221 136.881 122.9 136.652 123.732 136.652C124.576 136.652 125.262 136.881 125.789 137.338C126.316 137.795 126.58 138.375 126.58 139.078C126.58 139.77 126.316 140.35 125.789 140.818C125.273 141.287 124.588 141.521 123.732 141.521C122.877 141.521 122.191 141.287 121.676 140.818C121.16 140.35 120.902 139.77 120.902 139.078ZM151.4 126.475C151.201 129.229 150.182 131.396 148.342 132.979C146.514 134.561 144.1 135.352 141.1 135.352C137.818 135.352 135.234 134.25 133.348 132.047C131.473 129.832 130.535 126.797 130.535 122.941V121.377C130.535 118.916 130.969 116.748 131.836 114.873C132.703 112.998 133.939 111.562 135.545 110.566C137.162 109.559 139.037 109.055 141.17 109.055C144.123 109.055 146.502 109.846 148.307 111.428C150.111 113.01 151.154 115.23 151.436 118.09H146.162C146.033 116.438 145.57 115.242 144.773 114.504C143.988 113.754 142.787 113.379 141.17 113.379C139.412 113.379 138.094 114.012 137.215 115.277C136.348 116.531 135.902 118.482 135.879 121.131V123.064C135.879 125.83 136.295 127.852 137.127 129.129C137.971 130.406 139.295 131.045 141.1 131.045C142.729 131.045 143.941 130.676 144.738 129.938C145.547 129.188 146.01 128.033 146.127 126.475H151.4ZM175.693 135H170.42V124.031H160.137V135H154.863V109.406H160.137V119.777H170.42V109.406H175.693V135ZM207.492 113.678H199.652V135H194.379V113.678H186.645V109.406H207.492V113.678ZM231.346 135H226.072V124.031H215.789V135H210.516V109.406H215.789V119.777H226.072V109.406H231.346V135ZM241.576 135H236.303V109.406H241.576V135Z" fill="black"/>
<defs>
<filter id="filter0_d" x="0" y="0" width="339" height="209" filterUnits="userSpaceOnUse" color-interpolation-filters="sRGB">
<feFlood flood-opacity="0" result="BackgroundImageFix"/>
<feColorMatrix in="SourceAlpha" type="matrix" values="0 0 0 0 0 0 0 0 0 0 0 0 0 0 0 0 0 0 127 0"/>
<feOffset dy="4"/>
<feGaussianBlur stdDeviation="2"/>
<feColorMatrix type="matrix" values="0 0 0 0 0 0 0 0 0 0 0 0 0 0 0 0 0 0 0.25 0"/>
<feBlend mode="normal" in2="BackgroundImageFix" result="effect1_dropShadow"/>
<feBlend mode="normal" in="SourceGraphic" in2="effect1_dropShadow" result="shape"/>
</filter>
<filter id="filter1_d" x="27" y="29" width="289" height="141" filterUnits="userSpaceOnUse" color-interpolation-filters="sRGB">
<feFlood flood-opacity="0" result="BackgroundImageFix"/>
<feColorMatrix in="SourceAlpha" type="matrix" values="0 0 0 0 0 0 0 0 0 0 0 0 0 0 0 0 0 0 127 0"/>
<feOffset dy="4"/>
<feGaussianBlur stdDeviation="2"/>
<feColorMatrix type="matrix" values="0 0 0 0 0 0 0 0 0 0 0 0 0 0 0 0 0 0 0.25 0"/>
<feBlend mode="normal" in2="BackgroundImageFix" result="effect1_dropShadow"/>
<feBlend mode="normal" in="SourceGraphic" in2="effect1_dropShadow" result="shape"/>
</filter>
</defs>
</svg>
