<svg width="317" height="93" viewBox="0 0 317 93" fill="none" xmlns="http://www.w3.org/2000/svg">
<path d="M76.5 36.5C78.5 45.3 75.6667 51.5 74 53.5L70.5 47C70.6667 44 71 37.4 71 35C71 32.6 69.3333 28.3333 68.5 26.5C66.5 19.7 59 13.3333 55.5 11C53 9.5 46.2 6.5 39 6.5C31.8 6.5 25.6667 8.83333 23.5 10C20.1667 11.8333 12.5 17.6 8.5 26C4.5 34.4 6.5 46.1667 8 51C9.2 58.6 18.5 65.8333 23 68.5C27.3333 70 37.8 72.8 45 72C52.2 71.2 59.3333 65 62 62L71 70L49.5 27L36.5 51L43 43.5L48 48.5L28.5 67L23 63.5L49.5 15.5L87 92L62 70C60.5 71.5 55.9 74.8 49.5 76C41.5 77.5 40 79 24.5 74.5C12.1 70.9 5.66667 59 4.00001 53.5C3.00001 51.6667 1.10001 45.4 1.50001 35C1.90001 24.6 7.33334 16.3333 10 13.5C12.6667 10.5 20.5 4 30.5 2C40.5 0 51.3333 2.83333 55.5 4.5C58.1667 5 64.9 8.3 70.5 17.5C76.1 26.7 76.8333 34 76.5 36.5Z" fill="#20693B" stroke="#5DA085"/>
<path d="M115.689 37.7168H103.572L101.037 45H95.3867L107.203 13.7188H112.08L123.918 45H118.246L115.689 37.7168ZM105.098 33.334H114.164L109.631 20.3574L105.098 33.334ZM152.299 45H146.863L132.92 22.8066V45H127.484V13.7188H132.92L146.906 35.998V13.7188H152.299V45ZM183.559 45H178.145V31.0996H164.158V45H158.723V13.7188H164.158V26.7383H178.145V13.7188H183.559V45ZM225.818 30.1758C225.818 33.1406 225.346 35.7116 224.4 37.8887C223.469 40.0514 222.159 41.7702 220.469 43.0449L225.84 47.2344L222.316 50.4141L215.656 45.1504C214.783 45.3366 213.844 45.4297 212.842 45.4297C210.321 45.4297 208.065 44.8138 206.074 43.582C204.098 42.3359 202.565 40.5671 201.477 38.2754C200.402 35.9837 199.858 33.3411 199.844 30.3477V28.5859C199.844 25.5352 200.381 22.8424 201.455 20.5078C202.544 18.1732 204.069 16.39 206.031 15.1582C208.008 13.9121 210.264 13.2891 212.799 13.2891C215.377 13.2891 217.647 13.9049 219.609 15.1367C221.586 16.3542 223.111 18.1159 224.186 20.4219C225.26 22.7135 225.804 25.3848 225.818 28.4355V30.1758ZM220.361 28.543C220.361 25.0195 219.702 22.3483 218.385 20.5293C217.067 18.7103 215.205 17.8008 212.799 17.8008C210.464 17.8008 208.631 18.7246 207.299 20.5723C205.981 22.4056 205.308 24.998 205.279 28.3496V30.1758C205.279 33.556 205.938 36.1986 207.256 38.1035C208.588 40.0085 210.45 40.9609 212.842 40.9609C215.262 40.9609 217.117 40.0443 218.406 38.2109C219.71 36.3776 220.361 33.6992 220.361 30.1758V28.543ZM254.221 13.7188V34.623C254.221 37.946 253.154 40.5814 251.02 42.5293C248.9 44.4629 246.071 45.4297 242.533 45.4297C238.952 45.4297 236.109 44.4772 234.004 42.5723C231.898 40.653 230.846 37.9961 230.846 34.6016V13.7188H236.26V34.6445C236.26 36.7357 236.79 38.3327 237.85 39.4355C238.91 40.5384 240.471 41.0898 242.533 41.0898C246.715 41.0898 248.807 38.8841 248.807 34.4727V13.7188H254.221ZM277.08 37.7168H264.963L262.428 45H256.777L268.594 13.7188H273.471L285.309 45H279.637L277.08 37.7168ZM266.488 33.334H275.555L271.021 20.3574L266.488 33.334ZM278.52 11.291V11.5273H274.33L271.107 8.17578L267.906 11.5273H263.76V11.248L269.582 5.31836H272.654L278.52 11.291ZM313.689 45H308.254L294.311 22.8066V45H288.875V13.7188H294.311L308.297 35.998V13.7188H313.689V45Z" fill="#20693B"/>
<path d="M107.81 51.61V53.14H102.95V70H99.89V53.14H94.97V51.61H107.81ZM117.043 68.47V70H106.333V51.61H116.503V53.14H109.393V59.83H115.873V61.42H109.393V68.47H117.043ZM126.455 56.62C126.215 53.88 125.045 52.51 122.945 52.51C121.805 52.51 120.925 52.81 120.305 53.41C119.685 54.01 119.255 54.9 119.015 56.08C118.775 57.26 118.655 58.84 118.655 60.82C118.655 62.78 118.775 64.35 119.015 65.53C119.255 66.69 119.685 67.57 120.305 68.17C120.925 68.77 121.805 69.07 122.945 69.07C124.205 69.07 125.105 68.65 125.645 67.81C126.205 66.95 126.505 65.75 126.545 64.21L129.035 64.3C128.875 66.3 128.355 67.81 127.475 68.83C126.595 69.85 125.085 70.36 122.945 70.36C121.065 70.36 119.585 70 118.505 69.28C117.425 68.54 116.665 67.48 116.225 66.1C115.805 64.72 115.595 62.96 115.595 60.82C115.595 58.68 115.805 56.92 116.225 55.54C116.665 54.14 117.415 53.08 118.475 52.36C119.555 51.62 121.045 51.25 122.945 51.25C124.965 51.25 126.415 51.67 127.295 52.51C128.175 53.33 128.715 54.55 128.915 56.17L126.455 56.62ZM141.944 51.61V70H138.854V61.57H131.564V70H128.504V51.61H131.564V60.04H138.854V51.61H141.944ZM157.224 70H153.894L144.834 54.64V70H143.034V51.61H146.304L155.394 66.94V51.61H157.194V69.97L157.224 70ZM164.713 70.36C162.193 70.36 160.323 69.59 159.103 68.05C157.903 66.49 157.303 64.08 157.303 60.82C157.303 57.52 157.903 55.1 159.103 53.56C160.303 52.02 162.173 51.25 164.713 51.25C167.273 51.25 169.153 52.03 170.353 53.59C171.553 55.13 172.153 57.54 172.153 60.82C172.153 64.08 171.543 66.49 170.323 68.05C169.123 69.59 167.253 70.36 164.713 70.36ZM164.713 69.07C166.193 69.07 167.293 68.4 168.013 67.06C168.733 65.7 169.093 63.62 169.093 60.82C169.093 57.98 168.733 55.89 168.013 54.55C167.293 53.19 166.193 52.51 164.713 52.51C163.233 52.51 162.133 53.18 161.413 54.52C160.713 55.86 160.363 57.96 160.363 60.82C160.363 63.66 160.713 65.75 161.413 67.09C162.133 68.41 163.233 69.07 164.713 69.07ZM181.772 68.47V70H172.292V51.61H175.352V68.47H181.772ZM187.06 70.36C184.54 70.36 182.67 69.59 181.45 68.05C180.25 66.49 179.65 64.08 179.65 60.82C179.65 57.52 180.25 55.1 181.45 53.56C182.65 52.02 184.52 51.25 187.06 51.25C189.62 51.25 191.5 52.03 192.7 53.59C193.9 55.13 194.5 57.54 194.5 60.82C194.5 64.08 193.89 66.49 192.67 68.05C191.47 69.59 189.6 70.36 187.06 70.36ZM187.06 69.07C188.54 69.07 189.64 68.4 190.36 67.06C191.08 65.7 191.44 63.62 191.44 60.82C191.44 57.98 191.08 55.89 190.36 54.55C189.64 53.19 188.54 52.51 187.06 52.51C185.58 52.51 184.48 53.18 183.76 54.52C183.06 55.86 182.71 57.96 182.71 60.82C182.71 63.66 183.06 65.75 183.76 67.09C184.48 68.41 185.58 69.07 187.06 69.07ZM207.479 70H205.949L205.319 67.75C204.299 69.49 202.779 70.36 200.759 70.36C198.919 70.36 197.479 69.99 196.439 69.25C195.419 68.49 194.709 67.42 194.309 66.04C193.909 64.66 193.709 62.92 193.709 60.82C193.709 58.68 193.919 56.92 194.339 55.54C194.779 54.14 195.529 53.08 196.589 52.36C197.669 51.62 199.159 51.25 201.059 51.25C203.079 51.25 204.529 51.67 205.409 52.51C206.289 53.33 206.829 54.55 207.029 56.17L204.569 56.62C204.329 53.88 203.159 52.51 201.059 52.51C199.919 52.51 199.039 52.81 198.419 53.41C197.799 54.01 197.369 54.9 197.129 56.08C196.889 57.26 196.769 58.84 196.769 60.82C196.769 62.74 196.879 64.29 197.099 65.47C197.319 66.65 197.709 67.55 198.269 68.17C198.849 68.77 199.679 69.07 200.759 69.07C203.379 69.07 204.739 67.27 204.839 63.67V62.14H201.479V60.64H207.479V70ZM214.439 63.64L214.409 63.67V70H211.349V63.64L205.679 51.61H208.769L213.479 61.96L218.309 51.61H220.109L214.439 63.64ZM231.687 56.62C231.447 53.88 230.277 52.51 228.177 52.51C227.037 52.51 226.157 52.81 225.537 53.41C224.917 54.01 224.487 54.9 224.247 56.08C224.007 57.26 223.887 58.84 223.887 60.82C223.887 62.78 224.007 64.35 224.247 65.53C224.487 66.69 224.917 67.57 225.537 68.17C226.157 68.77 227.037 69.07 228.177 69.07C229.437 69.07 230.337 68.65 230.877 67.81C231.437 66.95 231.737 65.75 231.777 64.21L234.267 64.3C234.107 66.3 233.587 67.81 232.707 68.83C231.827 69.85 230.317 70.36 228.177 70.36C226.297 70.36 224.817 70 223.737 69.28C222.657 68.54 221.897 67.48 221.457 66.1C221.037 64.72 220.827 62.96 220.827 60.82C220.827 58.68 221.037 56.92 221.457 55.54C221.897 54.14 222.647 53.08 223.707 52.36C224.787 51.62 226.277 51.25 228.177 51.25C230.197 51.25 231.647 51.67 232.527 52.51C233.407 53.33 233.947 54.55 234.147 56.17L231.687 56.62ZM240.216 70.36C237.696 70.36 235.826 69.59 234.606 68.05C233.406 66.49 232.806 64.08 232.806 60.82C232.806 57.52 233.406 55.1 234.606 53.56C235.806 52.02 237.676 51.25 240.216 51.25C242.776 51.25 244.656 52.03 245.856 53.59C247.056 55.13 247.656 57.54 247.656 60.82C247.656 64.08 247.046 66.49 245.826 68.05C244.626 69.59 242.756 70.36 240.216 70.36ZM240.216 69.07C241.696 69.07 242.796 68.4 243.516 67.06C244.236 65.7 244.596 63.62 244.596 60.82C244.596 57.98 244.236 55.89 243.516 54.55C242.796 53.19 241.696 52.51 240.216 52.51C238.736 52.51 237.636 53.18 236.916 54.52C236.216 55.86 235.866 57.96 235.866 60.82C235.866 63.66 236.216 65.75 236.916 67.09C237.636 68.41 238.736 69.07 240.216 69.07ZM262.465 53.44L257.455 69.94V70H254.725L249.715 53.29L249.295 70H247.495L248.005 51.61H251.995L256.555 66.97L261.205 51.61H265.345L265.885 70H262.855L262.465 53.44ZM272.631 51.61C274.751 51.61 276.251 52.16 277.131 53.26C278.011 54.34 278.451 55.75 278.451 57.49C278.451 59.23 278.011 60.64 277.131 61.72C276.251 62.8 274.751 63.34 272.631 63.34H269.631V70H266.571V51.61H272.631ZM272.211 62.26C273.311 62.26 274.111 61.84 274.611 61C275.131 60.16 275.391 58.99 275.391 57.49C275.391 56.01 275.131 54.85 274.611 54.01C274.111 53.17 273.311 52.75 272.211 52.75H269.631V62.26H272.211ZM284.35 64.51H277.03L275.29 70H273.55L279.49 51.61H283.15L289.09 70H286.12L284.35 64.51ZM283.87 63.04L280.69 53.05L277.51 63.04H283.87ZM302.201 70H298.871L289.811 54.64V70H288.011V51.61H291.281L300.371 66.94V51.61H302.171V69.97L302.201 70ZM309.421 63.64L309.391 63.67V70H306.331V63.64L300.661 51.61H303.751L308.461 61.96L313.291 51.61H315.091L309.421 63.64Z" fill="#145AA5"/>
</svg>
