<svg width="241" height="215" viewBox="0 0 241 215" fill="none" xmlns="http://www.w3.org/2000/svg">
<path d="M73 85.5V77H167.5V85.5H73Z" stroke="white" stroke-width="3" stroke-linejoin="round"/>
<path d="M73 117.5V109H167.5V117.5H73Z" stroke="white" stroke-width="3" stroke-linejoin="round"/>
<path d="M73 149.5V141H167.5V149.5H73Z" stroke="white" stroke-width="3" stroke-linejoin="round"/>
<path d="M73 181.5V173H167.5V181.5H73Z" stroke="white" stroke-width="3" stroke-linejoin="round"/>
<path d="M46 105.5L43 102.5L37 108.5L46 117.5L66 97.5L60 91.5L46 105.5Z" />
<path fill-rule="evenodd" clip-rule="evenodd" d="M1.5 21.5184V108.5H22V210.5H184V49.5H184.5C185.926 49.5 187.545 48.5936 189.265 46.9579C190.969 45.3378 192.694 43.0777 194.33 40.5415C197.576 35.508 200.419 29.4655 202 25.4067C201.97 17.2454 197.999 11.5772 193.01 7.78558C188.002 3.97927 181.982 2.07996 177.964 1.5H21.5C14.0762 1.5 9.21864 4.82656 6.13933 8.98505C3.05024 13.1567 1.74801 18.1748 1.5 21.5184ZM5.33567 8.38995C8.58136 4.00677 13.7238 0.5 21.5 0.5H178.036L178.071 0.505025C182.22 1.09774 188.43 3.04846 193.615 6.98942C198.815 10.9417 203 16.9114 203 25.5V25.5935L202.966 25.6808C201.373 29.7883 198.484 35.9449 195.17 41.0835C193.514 43.6515 191.739 45.9852 189.954 47.6827C188.346 49.2113 186.663 50.2883 185 50.4721V211.5H21V109.5H0.5V21.4817L0.501333 21.4635C0.756685 17.9737 2.10534 12.7524 5.33567 8.38995ZM9 21.5194V101H21V21H37.9739C37.7877 19.1293 36.5965 16.3036 34.1464 13.8536C31.4876 11.1947 27.3637 9 21.5 9C16.8769 9 13.8523 11.076 11.9266 13.6728C9.99164 16.2822 9.16458 19.4254 9 21.5194ZM11.1234 13.0772C13.2144 10.2574 16.5231 8 21.5 8C27.6363 8 32.0124 10.3053 34.8536 13.1464C37.6737 15.9666 39 19.3374 39 21.5V22H22V102H8V21.4808L8.00147 21.4617C8.17374 19.2222 9.04754 15.8765 11.1234 13.0772ZM39.7929 8H178.028L178.056 8.00311C180.958 8.32821 185.298 9.58402 188.925 12.3095C192.57 15.0483 195.5 19.2785 195.5 25.5V25.5332L195.496 25.5661C195.152 28.1453 193.869 31.9898 191.13 35.1996C188.377 38.4259 184.159 41 178 41H39.9777L40.6053 40.193C42.8968 37.2468 45.6527 32.1268 46.4548 26.3809C47.2541 20.6554 46.1153 14.3224 40.6464 8.85355L39.7929 8ZM42.1678 9C47.1975 14.5327 48.2382 20.8389 47.4452 26.5191C46.6831 31.9782 44.2289 36.8705 41.9954 40H178C183.841 40 187.789 37.5741 190.37 34.5504C192.952 31.5239 194.171 27.8875 194.5 25.4666C194.49 19.6298 191.756 15.6875 188.325 13.109C184.88 10.521 180.736 9.31453 177.972 9H42.1678ZM28.5 28.5H39.0222L38.9995 29.0217C38.9136 30.9979 38.3239 33.9608 36.8149 36.4469C35.294 38.9528 32.8163 41 29 41H28.5V28.5ZM29.5 29.5V39.9867C32.6012 39.8196 34.6423 38.0993 35.9601 35.9281C37.2338 33.8296 37.8123 31.3321 37.9669 29.5H29.5ZM28.5 49.5H176V204H28.5V49.5ZM29.5 50.5V203H175V50.5H29.5ZM225.977 53C214.473 53.0061 212 57.6087 212 59.5V60H211.5C209.307 60 207.604 61.2133 206.342 62.8099C205.098 64.3854 204.329 66.2826 204 67.5624V115.5H210V68H212.5V195.943C212.996 198.054 214.216 201.229 216.272 203.922C218.344 206.634 221.222 208.81 225.025 209.001C228.798 209.189 231.656 207.116 233.725 204.351C235.78 201.602 237.003 198.23 237.5 195.948L236.5 59.5037L236.5 59.5C236.5 57.399 234.9 55.86 232.657 54.7751C230.445 53.7052 227.771 53.1656 225.977 53ZM211.032 59.0158C211.399 56.2105 214.979 52 226 52H226.023L226.045 52.0021C227.918 52.1723 230.731 52.7326 233.093 53.8749C235.432 55.0065 237.499 56.8003 237.5 59.4984V59.5L238.5 196.051L238.489 196.105C237.978 198.49 236.704 202.036 234.525 204.949C232.344 207.867 229.202 210.211 224.975 209.999C220.778 209.79 217.656 207.382 215.478 204.528C213.301 201.678 212.026 198.334 211.513 196.112L211.5 196.057V69H211V116.5H203V67.4384L203.015 67.3787C203.362 65.992 204.188 63.9236 205.558 62.1901C206.846 60.5588 208.657 59.1775 211.032 59.0158ZM226.063 60.0747C225.283 59.8951 224.524 59.9195 224.082 59.9932L224.041 60H224C223.188 60 222.348 60.4813 221.589 61.1803C220.891 61.8232 220.326 62.5914 220 63.1356V118H229.5V63.1667L228.1 61.3C227.593 60.6245 226.841 60.254 226.063 60.0747ZM226.287 59.1003C227.209 59.3127 228.207 59.7755 228.9 60.7L230.5 62.8333V119H219V62.8672L219.066 62.7519C219.42 62.1321 220.076 61.2144 220.911 60.4447C221.726 59.6943 222.787 59.0161 223.958 59.0003C224.518 58.9127 225.389 58.8933 226.287 59.1003ZM60 59.2929L66.7071 66L46 86.7071L36.2929 77L43 70.2929L46 73.2929L60 59.2929ZM60 60.7071L46 74.7071L43 71.7071L37.7071 77L46 85.2929L65.2929 66L60 60.7071ZM60 91.2929L66.7071 98L46 118.707L36.2929 109L43 102.293L46 105.293L60 91.2929ZM60 92.7071L46 106.707L43 103.707L37.7071 109L46 117.293L65.2929 98L60 92.7071ZM219 125.5H230.5V188.5H219V125.5ZM220 126.5V187.5H229.5V126.5H220ZM219 195.5H230.59L230.493 196.082C230.318 197.131 229.85 198.7 228.995 200.022C228.141 201.343 226.84 202.5 225 202.5C223.994 202.5 222.504 202.175 221.254 201.193C219.981 200.194 219 198.545 219 196V195.5ZM220.015 196.5C220.131 198.458 220.93 199.667 221.871 200.407C222.913 201.225 224.173 201.5 225 201.5C226.36 201.5 227.393 200.657 228.155 199.478C228.774 198.522 229.175 197.398 229.388 196.5H220.015Z" stroke="white" stroke-width="3" stroke-linejoin="round"/>
</svg>
