<svg width="339" height="209" viewBox="0 0 339 209" fill="none" xmlns="http://www.w3.org/2000/svg">
<g filter="url(#filter0_d)">
<rect x="4" width="331" height="201" fill="#145AA5"/>
</g>
<g filter="url(#filter1_d)">
<rect x="31" y="29" width="281" height="133" rx="5" fill="#E3E1D2"/>
</g>
<rect x="31" y="29" width="281" height="54" rx="5" fill="#D80000"/>
<path d="M91.0938 45.9922H83.1133V68H78.7012V45.9922H70.791V42.4062H91.0938V45.9922ZM114.789 68H110.359V56.627H98.916V68H94.4688V42.4062H98.916V53.0586H110.359V42.4062H114.789V68ZM140.488 55.8711C140.488 58.3789 140.055 60.582 139.188 62.4805C138.32 64.3672 137.078 65.8203 135.461 66.8398C133.855 67.8477 132.004 68.3516 129.906 68.3516C127.832 68.3516 125.98 67.8477 124.352 66.8398C122.734 65.8203 121.48 64.373 120.59 62.498C119.711 60.623 119.266 58.4609 119.254 56.0117V54.5703C119.254 52.0742 119.693 49.8711 120.572 47.9609C121.463 46.0508 122.711 44.5918 124.316 43.584C125.934 42.5645 127.785 42.0547 129.871 42.0547C131.957 42.0547 133.803 42.5586 135.408 43.5664C137.025 44.5625 138.273 46.0039 139.152 47.8906C140.031 49.7656 140.477 51.9512 140.488 54.4473V55.8711ZM136.041 54.5352C136.041 51.6992 135.502 49.5254 134.424 48.0137C133.357 46.502 131.84 45.7461 129.871 45.7461C127.949 45.7461 126.443 46.502 125.354 48.0137C124.275 49.5137 123.725 51.6406 123.701 54.3945V55.8711C123.701 58.6836 124.246 60.8574 125.336 62.3926C126.438 63.9277 127.961 64.6953 129.906 64.6953C131.875 64.6953 133.387 63.9453 134.441 62.4453C135.508 60.9453 136.041 58.7539 136.041 55.8711V54.5352ZM135.971 40.4199V40.6133H132.543L129.906 37.8711L127.287 40.6133H123.895V40.3848L128.658 35.5332H131.172L135.971 40.4199ZM165.221 68H160.773L149.365 49.8418V68H144.918V42.4062H149.365L160.809 60.6348V42.4062H165.221V68ZM190.094 64.6777C189.168 65.8848 187.885 66.7988 186.244 67.4199C184.604 68.041 182.74 68.3516 180.654 68.3516C178.51 68.3516 176.611 67.8652 174.959 66.8926C173.307 65.9199 172.029 64.5312 171.127 62.7266C170.236 60.9102 169.773 58.7949 169.738 56.3809V54.377C169.738 50.5098 170.664 47.4922 172.516 45.3242C174.367 43.1445 176.951 42.0547 180.268 42.0547C183.115 42.0547 185.377 42.7578 187.053 44.1641C188.729 45.5703 189.736 47.5977 190.076 50.2461H185.717C185.225 47.1641 183.438 45.623 180.355 45.623C178.363 45.623 176.846 46.3438 175.803 47.7852C174.771 49.2148 174.238 51.3184 174.203 54.0957V56.0645C174.203 58.8301 174.783 60.9805 175.943 62.5156C177.115 64.0391 178.738 64.8008 180.812 64.8008C183.086 64.8008 184.703 64.2852 185.664 63.2539V58.2441H180.391V54.8691H190.094V64.6777ZM203.945 68V42.4062H212.717C215.611 42.4062 217.814 42.9863 219.326 44.1465C220.838 45.3066 221.594 47.0352 221.594 49.332C221.594 50.5039 221.277 51.5586 220.645 52.4961C220.012 53.4336 219.086 54.1602 217.867 54.6758C219.25 55.0508 220.316 55.7598 221.066 56.8027C221.828 57.834 222.209 59.0762 222.209 60.5293C222.209 62.9316 221.436 64.7773 219.889 66.0664C218.354 67.3555 216.15 68 213.279 68H203.945ZM208.393 56.4512V64.4492H213.332C214.727 64.4492 215.816 64.1035 216.602 63.4121C217.387 62.7207 217.779 61.7598 217.779 60.5293C217.779 57.8691 216.42 56.5098 213.701 56.4512H208.393ZM208.393 53.1816H212.752C214.135 53.1816 215.213 52.8711 215.986 52.25C216.771 51.6172 217.164 50.7266 217.164 49.5781C217.164 48.3125 216.801 47.3984 216.074 46.8359C215.359 46.2734 214.24 45.9922 212.717 45.9922H208.393V53.1816ZM240.982 62.041H231.068L228.994 68H224.371L234.039 42.4062H238.029L247.715 68H243.074L240.982 62.041ZM232.316 58.4551H239.734L236.025 47.8379L232.316 58.4551ZM237.361 35.5508H242.23L237.361 40.877H233.934L237.361 35.5508ZM270.672 55.8711C270.672 58.3789 270.238 60.582 269.371 62.4805C268.504 64.3672 267.262 65.8203 265.645 66.8398C264.039 67.8477 262.188 68.3516 260.09 68.3516C258.016 68.3516 256.164 67.8477 254.535 66.8398C252.918 65.8203 251.664 64.373 250.773 62.498C249.895 60.623 249.449 58.4609 249.438 56.0117V54.5703C249.438 52.0742 249.877 49.8711 250.756 47.9609C251.646 46.0508 252.895 44.5918 254.5 43.584C256.117 42.5645 257.969 42.0547 260.055 42.0547C262.141 42.0547 263.986 42.5586 265.592 43.5664C267.209 44.5625 268.457 46.0039 269.336 47.8906C270.215 49.7656 270.66 51.9512 270.672 54.4473V55.8711ZM266.225 54.5352C266.225 51.6992 265.686 49.5254 264.607 48.0137C263.541 46.502 262.023 45.7461 260.055 45.7461C258.133 45.7461 256.627 46.502 255.537 48.0137C254.459 49.5137 253.908 51.6406 253.885 54.3945V55.8711C253.885 58.6836 254.43 60.8574 255.52 62.3926C256.621 63.9277 258.145 64.6953 260.09 64.6953C262.059 64.6953 263.57 63.9453 264.625 62.4453C265.691 60.9453 266.225 58.7539 266.225 55.8711V54.5352Z" fill="white"/>
<path d="M54.5508 113.678H46.7109V135H41.4375V113.678H33.7031V109.406H54.5508V113.678ZM78.4043 135H73.1309V124.031H62.8477V135H57.5742V109.406H62.8477V119.777H73.1309V109.406H78.4043V135ZM103.945 122.783C103.945 125.303 103.5 127.512 102.609 129.41C101.719 131.309 100.441 132.773 98.7773 133.805C97.125 134.836 95.2266 135.352 93.082 135.352C90.9609 135.352 89.0684 134.842 87.4043 133.822C85.7402 132.803 84.4512 131.35 83.5371 129.463C82.623 127.564 82.1602 125.385 82.1484 122.924V121.658C82.1484 119.139 82.5996 116.924 83.502 115.014C84.416 113.092 85.6992 111.621 87.3516 110.602C89.0156 109.57 90.9141 109.055 93.0469 109.055C94.6523 109.055 96.1113 109.342 97.4238 109.916C98.748 110.479 99.8906 111.293 100.852 112.359C101.707 112.148 102.293 111.621 102.609 110.777C102.926 109.934 103.084 108.832 103.084 107.473H106.529C106.529 111.504 105.193 113.971 102.521 114.873C103.447 116.807 103.922 119.01 103.945 121.482V122.783ZM98.6016 121.623C98.6016 118.939 98.1211 116.9 97.1602 115.506C96.1992 114.111 94.8281 113.414 93.0469 113.414C91.2773 113.414 89.9121 114.105 88.9512 115.488C87.9902 116.859 87.5039 118.875 87.4922 121.535V122.783C87.4922 125.396 87.9727 127.424 88.9336 128.865C89.8945 130.307 91.2773 131.027 93.082 131.027C94.8516 131.027 96.2109 130.336 97.1602 128.953C98.1094 127.559 98.5898 125.531 98.6016 122.871V121.623ZM95.666 107.947H91.5L86.6484 102.498H92.1855L95.666 107.947ZM113.877 135H108.604V109.406H113.877V135ZM135.762 124.734L133.02 127.688V135H127.746V109.406H133.02V121.008L135.34 117.826L141.861 109.406H148.348L139.26 120.779L148.611 135H142.336L135.762 124.734ZM171.428 135H166.154V124.031H155.871V135H150.598V109.406H155.871V119.777H166.154V109.406H171.428V135ZM197.074 122.783C197.074 125.303 196.629 127.512 195.738 129.41C194.848 131.309 193.57 132.773 191.906 133.805C190.254 134.836 188.355 135.352 186.211 135.352C184.09 135.352 182.197 134.842 180.533 133.822C178.869 132.803 177.58 131.35 176.666 129.463C175.752 127.564 175.289 125.385 175.277 122.924V121.658C175.277 119.139 175.729 116.924 176.631 115.014C177.545 113.092 178.828 111.621 180.48 110.602C182.145 109.57 184.043 109.055 186.176 109.055C188.309 109.055 190.201 109.57 191.854 110.602C193.518 111.621 194.801 113.092 195.703 115.014C196.617 116.924 197.074 119.133 197.074 121.641V122.783ZM191.73 121.623C191.73 118.939 191.25 116.9 190.289 115.506C189.328 114.111 187.957 113.414 186.176 113.414C184.406 113.414 183.041 114.105 182.08 115.488C181.119 116.859 180.633 118.875 180.621 121.535V122.783C180.621 125.396 181.102 127.424 182.062 128.865C183.023 130.307 184.406 131.027 186.211 131.027C187.98 131.027 189.34 130.336 190.289 128.953C191.238 127.559 191.719 125.531 191.73 122.871V121.623ZM187.195 102.551H192.732L187.863 108H183.732L187.195 102.551ZM214.969 129.727H205.723L203.965 135H198.357L207.885 109.406H212.771L222.352 135H216.744L214.969 129.727ZM207.146 125.455H213.545L210.328 115.875L207.146 125.455ZM233.707 135V109.406H242.672C245.777 109.406 248.133 110.004 249.738 111.199C251.344 112.383 252.146 114.123 252.146 116.42C252.146 117.674 251.824 118.781 251.18 119.742C250.535 120.691 249.639 121.389 248.49 121.834C249.803 122.162 250.834 122.824 251.584 123.82C252.346 124.816 252.727 126.035 252.727 127.477C252.727 129.938 251.941 131.801 250.371 133.066C248.801 134.332 246.562 134.977 243.656 135H233.707ZM238.98 123.855V130.764H243.498C244.74 130.764 245.707 130.471 246.398 129.885C247.102 129.287 247.453 128.467 247.453 127.424C247.453 125.08 246.24 123.891 243.814 123.855H238.98ZM238.98 120.129H242.883C245.543 120.082 246.873 119.021 246.873 116.947C246.873 115.787 246.533 114.955 245.854 114.451C245.186 113.936 244.125 113.678 242.672 113.678H238.98V120.129ZM262.307 135H257.033V109.406H262.307V135ZM282.609 123.908H272.484V130.764H284.367V135H267.211V109.406H284.332V113.678H272.484V119.777H282.609V123.908ZM282.486 108.07H278.848L276.053 105.715L273.24 108.07H269.602L274.523 104.027H277.582L282.486 108.07ZM280.852 105.838L280.623 103.834C281.35 103.799 281.871 103.711 282.188 103.57C282.516 103.418 282.68 103.189 282.68 102.885C282.68 102.182 281.971 101.83 280.553 101.83L280.658 99.8438C282.357 99.8438 283.635 100.102 284.49 100.617C285.346 101.121 285.773 101.824 285.773 102.727C285.773 103.289 285.574 103.77 285.176 104.168C284.789 104.555 284.25 104.789 283.559 104.871L283.541 105.838H280.852ZM306.832 109.406V126.264C306.832 129.064 305.953 131.279 304.195 132.908C302.449 134.537 300.059 135.352 297.023 135.352C294.035 135.352 291.662 134.561 289.904 132.979C288.146 131.396 287.25 129.223 287.215 126.457V109.406H292.488V126.299C292.488 127.975 292.887 129.199 293.684 129.973C294.492 130.734 295.605 131.115 297.023 131.115C299.988 131.115 301.494 129.557 301.541 126.439V109.406H306.832Z" fill="black"/>
<defs>
<filter id="filter0_d" x="0" y="0" width="339" height="209" filterUnits="userSpaceOnUse" color-interpolation-filters="sRGB">
<feFlood flood-opacity="0" result="BackgroundImageFix"/>
<feColorMatrix in="SourceAlpha" type="matrix" values="0 0 0 0 0 0 0 0 0 0 0 0 0 0 0 0 0 0 127 0"/>
<feOffset dy="4"/>
<feGaussianBlur stdDeviation="2"/>
<feColorMatrix type="matrix" values="0 0 0 0 0 0 0 0 0 0 0 0 0 0 0 0 0 0 0.25 0"/>
<feBlend mode="normal" in2="BackgroundImageFix" result="effect1_dropShadow"/>
<feBlend mode="normal" in="SourceGraphic" in2="effect1_dropShadow" result="shape"/>
</filter>
<filter id="filter1_d" x="27" y="29" width="289" height="141" filterUnits="userSpaceOnUse" color-interpolation-filters="sRGB">
<feFlood flood-opacity="0" result="BackgroundImageFix"/>
<feColorMatrix in="SourceAlpha" type="matrix" values="0 0 0 0 0 0 0 0 0 0 0 0 0 0 0 0 0 0 127 0"/>
<feOffset dy="4"/>
<feGaussianBlur stdDeviation="2"/>
<feColorMatrix type="matrix" values="0 0 0 0 0 0 0 0 0 0 0 0 0 0 0 0 0 0 0.25 0"/>
<feBlend mode="normal" in2="BackgroundImageFix" result="effect1_dropShadow"/>
<feBlend mode="normal" in="SourceGraphic" in2="effect1_dropShadow" result="shape"/>
</filter>
</defs>
</svg>
